<svg width="1440" height="58" viewBox="0 0 1440 58" fill="none" xmlns="http://www.w3.org/2000/svg">
<path d="M0 33.5981C21.7949 34.6098 57.1795 40.0733 104.615 38.4545C152.051 36.8357 176.41 25.0184 227.692 25.8278C278.974 26.6372 299.487 43.3513 350.769 42.3396C402.051 41.3278 422.564 20.0608 473.846 20.9714C525.128 21.882 545.641 47.8233 596.923 46.7103C648.205 45.5974 668.718 14.0106 720 15.6294C771.282 17.2482 791.795 52.4571 843.077 54.4806C894.359 56.5041 914.872 26.4551 966.154 25.3422C1017.44 24.2292 1037.95 47.6209 1089.23 49.1385C1140.51 50.6562 1161.03 31.1091 1212.31 32.6268C1263.59 34.1444 1287.95 56.2208 1335.38 56.4232C1382.82 56.6255 1418.21 38.3533 1440 33.5981" stroke="#31BDDC" stroke-width="2" stroke-linecap="round"/>
<path d="M0 28.7417C21.7949 29.7534 57.1795 35.2169 104.615 33.5981C152.051 31.9793 176.41 20.162 227.692 20.9714C278.974 21.7808 299.487 38.4949 350.769 37.4832C402.051 36.4714 422.564 15.2044 473.846 16.115C525.128 17.0256 545.641 42.9669 596.923 41.8539C648.205 40.741 668.718 9.15416 720 10.773C771.282 12.3918 791.795 47.6007 843.077 49.6242C894.359 51.6477 914.872 21.5987 966.154 20.4858C1017.44 19.3728 1037.95 42.7645 1089.23 44.2821C1140.51 45.7998 1161.03 26.2527 1212.31 27.7704C1263.59 29.288 1287.95 51.3644 1335.38 51.5668C1382.82 51.7691 1418.21 33.4969 1440 28.7417" stroke="#31BDDC" stroke-width="2" stroke-linecap="round"/>
<path d="M0 23.8852C21.7949 24.897 57.1795 30.3604 104.615 28.7416C152.051 27.1228 176.41 15.3056 227.692 16.115C278.974 16.9244 299.487 33.6385 350.769 32.6268C402.051 31.615 422.564 10.348 473.846 11.2586C525.128 12.1692 545.641 38.1105 596.923 36.9975C648.205 35.8846 668.718 4.29774 720 5.91654C771.282 7.53535 791.795 42.7443 843.077 44.7678C894.359 46.7913 914.872 16.7423 966.154 15.6294C1017.44 14.5164 1037.95 37.9081 1089.23 39.4257C1140.51 40.9434 1161.03 21.3963 1212.31 22.914C1263.59 24.4316 1287.95 46.508 1335.38 46.7103C1382.82 46.9127 1418.21 28.6405 1440 23.8852" stroke="#31BDDC" stroke-width="2" stroke-linecap="round"/>
<path d="M0 19.0288C21.7949 20.0406 57.1795 25.504 104.615 23.8852C152.051 22.2664 176.41 10.4492 227.692 11.2586C278.974 12.068 299.487 28.7821 350.769 27.7704C402.051 26.7586 422.564 5.49161 473.846 6.40219C525.128 7.31276 545.641 33.2541 596.923 32.1411C648.205 31.0282 668.718 -0.558657 720 1.06014C771.282 2.67895 791.795 37.8879 843.077 39.9114C894.359 41.9349 914.872 11.8859 966.154 10.773C1017.44 9.66003 1037.95 33.0517 1089.23 34.5693C1140.51 36.087 1161.03 16.5399 1212.31 18.0576C1263.59 19.5752 1287.95 41.6516 1335.38 41.8539C1382.82 42.0563 1418.21 23.7841 1440 19.0288" stroke="#31BDDC" stroke-width="2" stroke-linecap="round"/>
</svg>
