<svg width="175" height="49" viewBox="0 0 175 49" fill="none" xmlns="http://www.w3.org/2000/svg">
<mask id="path-1-outside-1_215_62" maskUnits="userSpaceOnUse" x="-1" y="-1" width="177" height="51" fill="black">
<rect fill="white" x="-1" y="-1" width="177" height="51"/>
<path d="M31.4388 43.928C30.9268 45.2507 30.1161 46.296 29.0068 47.064C27.9401 47.832 26.6601 48.216 25.1668 48.216C23.7161 48.216 21.5188 47.32 18.5748 45.528C15.6734 43.736 13.3481 42.584 11.5988 42.072C10.4468 43.608 9.14542 44.888 7.69475 45.912C6.24408 46.936 5.24142 47.448 4.68675 47.448C4.26008 47.448 3.40675 46.5307 2.12675 44.696C0.84675 42.8187 0.20675 41.4747 0.20675 40.664C0.20675 40.1947 0.868083 39.4907 2.19075 38.552C3.55608 37.6133 4.98542 36.9733 6.47875 36.632C7.54542 34.0293 8.65475 30.1893 9.80675 25.112C10.9588 19.992 11.8548 14.7227 12.4948 9.304C12.4948 8.62133 12.2601 7.81067 11.7908 6.872C11.3641 5.89066 10.9161 5.10133 10.4468 4.504L9.80675 3.608L9.99875 2.648C12.5588 1.92266 16.7614 1.56 22.6068 1.56C23.1614 2.49866 23.4388 3.928 23.4388 5.848C23.4388 7.768 22.8841 10.6267 21.7748 14.424C20.6654 18.2213 19.1294 22.7867 17.1667 28.12C15.2468 33.4107 14.1374 36.5467 13.8388 37.528C14.0094 37.5707 14.5428 37.72 15.4388 37.976C16.3348 38.232 16.9108 38.4027 17.1667 38.488C17.4654 38.5307 18.0201 38.6587 18.8308 38.872C19.6414 39.0427 20.2814 39.1707 20.7508 39.256C21.2201 39.2987 21.8388 39.3627 22.6068 39.448C23.9294 39.6613 25.1668 39.768 26.3188 39.768C27.5134 39.768 28.3668 39.4693 28.8788 38.872L30.6708 35.544L32.7828 36.056C32.7828 38.8293 32.3348 41.4533 31.4388 43.928ZM43.6613 47.768C40.7173 47.768 38.4133 46.744 36.7493 44.696C35.0853 42.6053 34.2533 39.704 34.2533 35.992C34.2533 31.256 35.5119 27.1813 38.0293 23.768C40.5893 20.3547 44.1093 18.648 48.5893 18.648L50.8933 18.776C51.6186 18.392 52.4293 18.2 53.3253 18.2C56.6959 18.2 58.3813 21.3787 58.3813 27.736C60.1306 27.6507 61.9013 27.416 63.6933 27.032L64.7173 26.776L65.1012 29.272C63.6933 29.8693 61.7946 30.4027 59.4053 30.872L58.1253 31.128C57.3146 35.608 55.6719 39.512 53.1973 42.84C50.7226 46.1253 47.5439 47.768 43.6613 47.768ZM47.1173 42.264C48.9093 42.264 50.5093 41.112 51.9173 38.808C53.3679 36.504 54.3706 34.072 54.9253 31.512C50.3599 31.512 48.0773 29.8053 48.0773 26.392C48.0773 25.0267 48.3546 23.7467 48.9093 22.552L49.2292 21.912C49.0586 21.8267 48.8453 21.784 48.5893 21.784C48.3333 21.784 48.1413 21.8267 48.0133 21.912C46.9466 22.5947 45.9439 24.1947 45.0053 26.712C44.0666 29.2293 43.5973 32.1093 43.5973 35.352C43.5973 39.96 44.7706 42.264 47.1173 42.264ZM60.7758 42.2C60.7758 40.3653 61.3304 37.2507 62.4398 32.856C63.5491 28.4187 64.1038 25.7093 64.1038 24.728C64.1038 23.704 63.3358 22.36 61.7998 20.696L61.8638 19.864C64.7651 19.2667 68.5838 18.968 73.3198 18.968C73.5331 19.5227 73.6398 20.5253 73.6398 21.976C73.6398 23.4267 73.0424 26.52 71.8478 31.256C70.6531 35.992 70.0558 38.936 70.0558 40.088C70.0558 41.24 70.4824 41.816 71.3358 41.816C72.5731 41.816 74.0024 41.368 75.6238 40.472C75.7944 39.448 76.2211 37.4853 76.9038 34.584C78.4398 27.7573 79.2078 22.872 79.2078 19.928C80.7011 19.3307 83.3891 19.032 87.2718 19.032H88.4878C88.4878 21.0373 87.8904 24.9627 86.6958 30.808C85.5011 36.6107 84.9038 40.024 84.9038 41.048C84.9038 42.0293 85.1171 42.52 85.5438 42.52C85.7998 42.52 87.0158 42.008 89.1918 40.984L90.4078 43.032C86.6104 46.1893 83.2824 47.768 80.4238 47.768C79.0584 47.768 77.8851 47.384 76.9038 46.616C75.9651 45.848 75.4318 44.8453 75.3038 43.608C71.8478 46.424 68.7118 47.832 65.8958 47.832C64.4024 47.832 63.1651 47.3413 62.1838 46.36C61.2451 45.3787 60.7758 43.992 60.7758 42.2ZM122.537 43.096C118.911 46.2107 115.711 47.768 112.937 47.768C110.207 47.768 108.628 46.4027 108.201 43.672C106.921 44.952 105.492 45.9547 103.913 46.68C102.335 47.4053 100.948 47.768 99.7533 47.768C97.7053 47.768 95.9559 46.872 94.5052 45.08C93.0546 43.288 92.3293 40.5147 92.3293 36.76C92.3293 31.128 93.5239 26.712 95.9133 23.512C98.3026 20.2693 100.991 18.648 103.977 18.648C107.007 18.648 109.545 19.3307 111.593 20.696C112.916 13.784 113.577 8.344 113.577 4.376L113.257 1.688C116.457 0.578665 119.593 0.0239983 122.665 0.0239983C123.007 0.749332 123.177 1.58133 123.177 2.52C123.177 5.63466 122.239 11.9707 120.361 21.528C118.484 31.0427 117.545 37.5067 117.545 40.92C117.545 41.944 117.78 42.456 118.249 42.456C118.505 42.456 119.316 42.0507 120.681 41.24L121.321 40.856L122.537 43.096ZM107.113 22.424C105.62 22.424 104.319 23.896 103.209 26.84C102.143 29.784 101.609 32.7067 101.609 35.608C101.609 38.4667 101.801 40.3013 102.185 41.112C102.612 41.9227 103.231 42.328 104.041 42.328C105.449 42.328 106.836 41.752 108.201 40.6C108.329 38.8933 109.289 33.2187 111.081 23.576C109.631 22.808 108.308 22.424 107.113 22.424ZM124.07 35.928C124.07 30.5947 125.67 26.392 128.87 23.32C132.113 20.2053 135.782 18.648 139.878 18.648C142.396 18.648 144.465 19.2667 146.086 20.504C147.708 21.7413 148.518 23.4053 148.518 25.496C148.518 27.544 147.985 29.272 146.918 30.68C145.894 32.088 144.636 33.176 143.142 33.944C140.113 35.4373 137.34 36.376 134.822 36.76L133.286 36.952C133.585 40.9627 135.228 42.968 138.214 42.968C139.238 42.968 140.326 42.712 141.478 42.2C142.63 41.688 143.526 41.176 144.166 40.664L145.126 39.896L146.662 41.944C146.321 42.4133 145.638 43.032 144.614 43.8C143.59 44.568 142.63 45.208 141.734 45.72C139.26 47.0853 136.55 47.768 133.606 47.768C130.662 47.768 128.337 46.7227 126.63 44.632C124.924 42.5413 124.07 39.64 124.07 35.928ZM133.222 33.816C135.398 33.432 137.126 32.5147 138.406 31.064C139.686 29.6133 140.326 27.736 140.326 25.432C140.326 23.128 139.644 21.976 138.278 21.976C136.657 21.976 135.398 23.3627 134.502 26.136C133.649 28.8667 133.222 31.4267 133.222 33.816ZM151.169 47.192H150.721C150.635 46.8507 150.593 46.0827 150.593 44.888C150.593 43.6507 151.169 40.3653 152.321 35.032C153.473 29.6987 154.049 26.648 154.049 25.88C154.049 24.5573 153.451 23.1067 152.257 21.528L151.681 20.76L151.745 19.928C154.049 19.288 157.739 18.968 162.817 18.968C163.329 20.0773 163.585 21.6347 163.585 23.64C164.054 22.872 165.035 21.848 166.529 20.568C168.022 19.288 169.558 18.648 171.137 18.648C173.441 18.648 174.593 20.6533 174.593 24.664C174.379 24.92 174.081 25.2613 173.697 25.688C173.355 26.072 172.63 26.6267 171.521 27.352C170.454 28.0773 169.409 28.5253 168.385 28.696C168.342 28.696 167.979 28.12 167.297 26.968C166.614 25.816 166.102 25.24 165.761 25.24C164.694 25.624 163.755 26.264 162.945 27.16C160.982 35.992 160.001 41.7093 160.001 44.312C160.001 45.2507 160.022 45.912 160.065 46.296C158.571 46.8933 155.606 47.192 151.169 47.192Z"/>
</mask>
<path d="M31.4388 43.928L32.3713 44.289L32.3753 44.2788L32.379 44.2684L31.4388 43.928ZM29.0068 47.064L28.4375 46.2418L28.4299 46.2471L28.4224 46.2525L29.0068 47.064ZM18.5748 45.528L18.0492 46.3788L18.0548 46.3822L18.5748 45.528ZM11.5988 42.072L11.8796 41.1123L11.2146 40.9176L10.7987 41.472L11.5988 42.072ZM7.69475 45.912L7.11807 45.095L7.69475 45.912ZM2.12675 44.696L1.30047 45.2594L1.30662 45.2682L2.12675 44.696ZM2.19075 38.552L1.62422 37.728L1.61808 37.7322L1.612 37.7365L2.19075 38.552ZM6.47875 36.632L6.70157 37.6069L7.20732 37.4913L7.40405 37.0112L6.47875 36.632ZM9.80675 25.112L10.782 25.3333L10.7824 25.3315L9.80675 25.112ZM12.4948 9.304L13.4878 9.42129L13.4948 9.36285V9.304H12.4948ZM11.7908 6.872L10.8737 7.27072L10.8844 7.29527L10.8963 7.31921L11.7908 6.872ZM10.4468 4.504L9.63302 5.08524L9.64631 5.10384L9.66043 5.12182L10.4468 4.504ZM9.80675 3.608L8.82617 3.41188L8.74121 3.8367L8.99302 4.18924L9.80675 3.608ZM9.99875 2.648L9.72615 1.68587L9.13805 1.8525L9.01817 2.45188L9.99875 2.648ZM22.6068 1.56L23.4677 1.05127L23.1774 0.559998H22.6068V1.56ZM21.7747 14.424L22.7346 14.7044L21.7747 14.424ZM17.1667 28.12L16.2283 27.7746L16.2267 27.7789L17.1667 28.12ZM13.8388 37.528L12.8821 37.2368L12.5758 38.243L13.5962 38.4981L13.8388 37.528ZM15.4388 37.976L15.164 38.9375L15.4388 37.976ZM17.1667 38.488L16.8505 39.4367L16.9361 39.4652L17.0253 39.478L17.1667 38.488ZM18.8307 38.872L18.5763 39.8391L18.6004 39.8454L18.6247 39.8505L18.8307 38.872ZM20.7508 39.256L20.5719 40.2399L20.6158 40.2479L20.6602 40.2519L20.7508 39.256ZM22.6068 39.448L22.766 38.4608L22.7417 38.4568L22.7172 38.4541L22.6068 39.448ZM28.8788 38.872L29.638 39.5228L29.7081 39.441L29.7592 39.3461L28.8788 38.872ZM30.6708 35.544L30.9064 34.5722L30.1562 34.3903L29.7903 35.0699L30.6708 35.544ZM32.7828 36.056H33.7828V35.2695L33.0184 35.0841L32.7828 36.056ZM30.5062 43.567C30.0625 44.7131 29.3737 45.5937 28.4375 46.2418L29.576 47.8862C30.8585 46.9983 31.791 45.7882 32.3713 44.289L30.5062 43.567ZM28.4224 46.2525C27.5486 46.8816 26.4801 47.216 25.1668 47.216V49.216C26.8401 49.216 28.3316 48.7824 29.5911 47.8755L28.4224 46.2525ZM25.1668 47.216C24.6273 47.216 23.8537 47.0443 22.8083 46.618C21.7755 46.1969 20.5396 45.5533 19.0947 44.6738L18.0548 46.3822C19.5539 47.2947 20.8886 47.9951 22.0532 48.47C23.2051 48.9397 24.2555 49.216 25.1668 49.216V47.216ZM19.1002 44.6772C16.1766 42.8714 13.7599 41.6626 11.8796 41.1123L11.3179 43.0317C12.9363 43.5054 15.1702 44.6006 18.0493 46.3788L19.1002 44.6772ZM10.7987 41.472C9.70432 42.9312 8.47677 44.1359 7.11807 45.095L8.27143 46.729C9.81407 45.6401 11.1892 44.2848 12.3988 42.672L10.7987 41.472ZM7.11807 45.095C6.41215 45.5933 5.84207 45.9476 5.39997 46.1734C5.17954 46.286 5.0059 46.3588 4.87443 46.402C4.73714 46.4472 4.68165 46.448 4.68675 46.448V48.448C5.21498 48.448 5.78378 48.2231 6.30953 47.9546C6.8701 47.6684 7.52668 47.2547 8.27143 46.729L7.11807 45.095ZM4.68675 46.448C4.90242 46.448 4.98365 46.5452 4.86927 46.4632C4.78547 46.4031 4.65013 46.2844 4.45894 46.0789C4.07956 45.6711 3.57741 45.0276 2.94688 44.1238L1.30662 45.2682C1.95609 46.1991 2.5206 46.9316 2.99456 47.4411C3.23004 47.6942 3.46803 47.9195 3.70423 48.0888C3.90985 48.2362 4.25775 48.448 4.68675 48.448V46.448ZM2.95298 44.1327C2.32854 43.2168 1.87925 42.4583 1.58961 41.8501C1.28875 41.2183 1.20675 40.8431 1.20675 40.664H-0.79325C-0.79325 41.2956 -0.555247 41.9977 -0.21611 42.7099C0.134249 43.4457 0.64496 44.2978 1.30052 45.2593L2.95298 44.1327ZM1.20675 40.664C1.20675 40.8449 1.11887 40.8016 1.4316 40.4687C1.69639 40.1868 2.13121 39.8205 2.7695 39.3675L1.612 37.7365C0.927627 38.2222 0.37044 38.6772 -0.0260983 39.0993C-0.374706 39.4704 -0.79325 40.0138 -0.79325 40.664H1.20675ZM2.75728 39.376C4.02713 38.503 5.34102 37.9178 6.70157 37.6069L6.25593 35.6571C4.62981 36.0288 3.08503 36.7236 1.62422 37.728L2.75728 39.376ZM7.40405 37.0112C8.5024 34.3313 9.62616 30.4274 10.782 25.3333L8.83154 24.8907C7.68334 29.9513 6.58843 33.7274 5.55345 36.2528L7.40405 37.0112ZM10.7824 25.3315C11.9422 20.1765 12.844 14.873 13.4878 9.42129L11.5017 9.1867C10.8656 14.5724 9.97525 19.8075 8.83114 24.8925L10.7824 25.3315ZM13.4948 9.304C13.4948 8.40492 13.1901 7.43465 12.6852 6.42478L10.8963 7.31921C11.3301 8.18668 11.4948 8.83774 11.4948 9.304H13.4948ZM12.7078 6.47327C12.2598 5.4428 11.7717 4.57176 11.2331 3.88618L9.66043 5.12182C10.0604 5.6309 10.4684 6.33853 10.8737 7.27072L12.7078 6.47327ZM11.2605 3.92276L10.6205 3.02676L8.99302 4.18924L9.63302 5.08524L11.2605 3.92276ZM10.7873 3.80412L10.9793 2.84412L9.01817 2.45188L8.82617 3.41188L10.7873 3.80412ZM10.2714 3.61012C12.688 2.92542 16.7706 2.56 22.6068 2.56V0.559998C16.7522 0.559998 12.4295 0.919914 9.72615 1.68587L10.2714 3.61012ZM21.7458 2.06873C22.1639 2.77621 22.4388 3.98882 22.4388 5.848H24.4388C24.4388 3.86718 24.159 2.22112 23.4677 1.05127L21.7458 2.06873ZM22.4388 5.848C22.4388 7.61795 21.9195 10.3622 20.8149 14.1436L22.7346 14.7044C23.8486 10.8911 24.4388 7.91805 24.4388 5.848H22.4388ZM20.8149 14.1436C19.714 17.9119 18.1861 22.4543 16.2283 27.7746L18.1052 28.4654C20.0727 23.119 21.6168 18.5308 22.7346 14.7044L20.8149 14.1436ZM16.2267 27.7789C14.3119 33.0553 13.1905 36.2235 12.8821 37.2368L14.7954 37.8192C15.0843 36.8698 16.1816 33.766 18.1068 28.4611L16.2267 27.7789ZM13.5962 38.4981C13.7464 38.5357 14.2592 38.679 15.164 38.9375L15.7135 37.0145C14.8263 36.761 14.2724 36.6056 14.0813 36.5579L13.5962 38.4981ZM15.164 38.9375C16.0657 39.1951 16.6192 39.3596 16.8505 39.4367L17.483 37.5393C17.2023 37.4457 16.6038 37.2689 15.7135 37.0145L15.164 38.9375ZM17.0253 39.478C17.2584 39.5112 17.7594 39.6241 18.5763 39.8391L19.0852 37.9049C18.2807 37.6932 17.6724 37.5501 17.3082 37.4981L17.0253 39.478ZM18.6247 39.8505C19.4389 40.022 20.0892 40.1521 20.5719 40.2399L20.9296 38.2721C20.4736 38.1892 19.8439 38.0634 19.0368 37.8935L18.6247 39.8505ZM20.6602 40.2519C21.1201 40.2937 21.7313 40.3569 22.4963 40.4419L22.7172 38.4541C21.9462 38.3684 21.3201 38.3036 20.8413 38.2601L20.6602 40.2519ZM22.4475 40.4352C23.8146 40.6557 25.1056 40.768 26.3187 40.768V38.768C25.2279 38.768 24.0443 38.6669 22.766 38.4608L22.4475 40.4352ZM26.3187 40.768C27.6528 40.768 28.8552 40.436 29.638 39.5228L28.1195 38.2212C27.8783 38.5026 27.3741 38.768 26.3187 38.768V40.768ZM29.7592 39.3461L31.5512 36.0181L29.7903 35.0699L27.9983 38.3979L29.7592 39.3461ZM30.4352 36.5159L32.5472 37.0279L33.0184 35.0841L30.9064 34.5722L30.4352 36.5159ZM31.7828 36.056C31.7828 38.7195 31.3529 41.2278 30.4985 43.5876L32.379 44.2684C33.3166 41.6789 33.7828 38.9391 33.7828 36.056H31.7828ZM36.7492 44.696L35.9668 45.3188L35.9731 45.3266L36.7492 44.696ZM38.0293 23.768L37.2292 23.168L37.2244 23.1745L38.0293 23.768ZM48.5892 18.648L48.6447 17.6495L48.617 17.648H48.5892V18.648ZM50.8932 18.776L50.8378 19.7745L51.1154 19.7899L51.3611 19.6598L50.8932 18.776ZM58.3812 27.736H57.3812V28.786L58.43 28.7348L58.3812 27.736ZM63.6933 27.032L63.9028 28.0098L63.9193 28.0063L63.9358 28.0021L63.6933 27.032ZM64.7173 26.776L65.7056 26.6239L65.5388 25.5398L64.4747 25.8059L64.7173 26.776ZM65.1012 29.272L65.4918 30.1926L66.2079 29.8888L66.0896 29.1199L65.1012 29.272ZM59.4053 30.872L59.2125 29.8907L59.2091 29.8914L59.4053 30.872ZM58.1253 31.128L57.9291 30.1474L57.2623 30.2808L57.1412 30.9499L58.1253 31.128ZM53.1973 42.84L53.996 43.4417L53.9997 43.4367L53.1973 42.84ZM51.9173 38.808L51.0709 38.2751L51.064 38.2865L51.9173 38.808ZM54.9252 31.512L55.9026 31.7238L56.1651 30.512H54.9252V31.512ZM48.9092 22.552L48.0148 22.1048L48.0083 22.1177L48.0022 22.1309L48.9092 22.552ZM49.2292 21.912L50.1237 22.3592L50.5709 21.4648L49.6765 21.0176L49.2292 21.912ZM48.0133 21.912L48.5523 22.7543L48.5602 22.7492L48.568 22.744L48.0133 21.912ZM45.0052 26.712L45.9422 27.0614L45.0052 26.712ZM43.6613 46.768C40.9789 46.768 38.9759 45.8507 37.5254 44.0654L35.9731 45.3266C37.8506 47.6373 40.4556 48.768 43.6613 48.768V46.768ZM37.5317 44.0733C36.0545 42.2173 35.2533 39.5646 35.2533 35.992H33.2533C33.2533 39.8434 34.116 42.9934 35.9668 45.3187L37.5317 44.0733ZM35.2533 35.992C35.2533 31.4435 36.4582 27.583 38.8341 24.3615L37.2244 23.1745C34.5656 26.7796 33.2533 31.0685 33.2533 35.992H35.2533ZM38.8293 24.368C41.1896 21.2208 44.4056 19.648 48.5892 19.648V17.648C43.8129 17.648 39.9889 19.4885 37.2293 23.168L38.8293 24.368ZM48.5338 19.6465L50.8378 19.7745L50.9487 17.7775L48.6447 17.6495L48.5338 19.6465ZM51.3611 19.6598C51.9294 19.359 52.5771 19.2 53.3252 19.2V17.2C52.2814 17.2 51.3078 17.425 50.4254 17.8922L51.3611 19.6598ZM53.3252 19.2C54.0045 19.2 54.5523 19.358 55.005 19.6426C55.4612 19.9294 55.8776 20.3807 56.2337 21.0524C56.9618 22.4255 57.3812 24.6131 57.3812 27.736H59.3812C59.3812 24.5016 58.9581 21.9211 58.0007 20.1156C57.5142 19.1979 56.8773 18.4573 56.0695 17.9494C55.2582 17.4394 54.3313 17.2 53.3252 17.2V19.2ZM58.43 28.7348C60.2358 28.6467 62.0603 28.4046 63.9028 28.0098L63.4837 26.0542C61.7422 26.4274 60.0253 26.6546 58.3325 26.7372L58.43 28.7348ZM63.9358 28.0021L64.9598 27.7461L64.4747 25.8059L63.4507 26.0619L63.9358 28.0021ZM63.7289 26.9281L64.1129 29.4241L66.0896 29.1199L65.7056 26.6239L63.7289 26.9281ZM64.7107 28.3514C63.3923 28.9107 61.5688 29.4279 59.2125 29.8908L59.598 31.8532C62.0204 31.3774 63.9942 30.8279 65.4918 30.1926L64.7107 28.3514ZM59.2091 29.8914L57.9291 30.1474L58.3214 32.1086L59.6014 31.8526L59.2091 29.8914ZM57.1412 30.9499C56.3553 35.2933 54.7688 39.0507 52.3948 42.2433L53.9997 43.4367C56.5751 39.9733 58.2739 35.9227 59.1093 31.3061L57.1412 30.9499ZM52.3985 42.2383C50.0997 45.2902 47.2088 46.768 43.6613 46.768V48.768C47.879 48.768 51.3455 46.9605 53.996 43.4417L52.3985 42.2383ZM47.1172 43.264C49.4125 43.264 51.2797 41.7689 52.7705 39.3294L51.064 38.2865C49.7388 40.4551 48.406 41.264 47.1172 41.264V43.264ZM52.7635 39.3408C54.2737 36.9422 55.3223 34.4021 55.9026 31.7238L53.9479 31.3002C53.4189 33.7419 52.4621 36.0658 51.071 38.2752L52.7635 39.3408ZM54.9252 30.512C52.7383 30.512 51.2802 30.0981 50.3881 29.4311C49.5506 28.8049 49.0772 27.8535 49.0772 26.392H47.0773C47.0773 28.3438 47.7453 29.9524 49.1905 31.0329C50.581 32.0726 52.5469 32.512 54.9252 32.512V30.512ZM49.0772 26.392C49.0772 25.1667 49.3251 24.031 49.8163 22.9731L48.0022 22.1309C47.3841 23.4624 47.0773 24.8867 47.0773 26.392H49.0772ZM49.8037 22.9992L50.1237 22.3592L48.3348 21.4648L48.0148 22.1048L49.8037 22.9992ZM49.6765 21.0176C49.3278 20.8433 48.9499 20.784 48.5892 20.784V22.784C48.7406 22.784 48.7893 22.8101 48.782 22.8064L49.6765 21.0176ZM48.5892 20.784C48.2537 20.784 47.8272 20.8342 47.4585 21.0799L48.568 22.744C48.536 22.7654 48.5094 22.7778 48.4926 22.7845C48.4761 22.7911 48.4677 22.7927 48.4702 22.7922C48.4727 22.7916 48.4834 22.7895 48.5041 22.7875C48.5246 22.7855 48.5527 22.784 48.5892 22.784V20.784ZM47.4742 21.0697C46.1092 21.9433 45.0137 23.8272 44.0683 26.3626L45.9422 27.0614C46.8741 24.5622 47.784 23.246 48.5523 22.7543L47.4742 21.0697ZM44.0683 26.3626C43.0803 29.0122 42.5973 32.014 42.5973 35.352H44.5973C44.5973 32.2046 45.0529 29.4465 45.9422 27.0614L44.0683 26.3626ZM42.5973 35.352C42.5973 37.7085 42.8919 39.6265 43.5861 40.9898C43.9406 41.6858 44.4137 42.2656 45.0296 42.6687C45.6508 43.0753 46.3593 43.264 47.1172 43.264V41.264C46.7019 41.264 46.3837 41.1647 46.1249 40.9953C45.8608 40.8224 45.6006 40.5382 45.3684 40.0822C44.8893 39.1415 44.5973 37.6035 44.5973 35.352H42.5973ZM62.4398 32.856L63.4093 33.1007L63.4099 33.0985L62.4398 32.856ZM61.7998 20.696L60.8027 20.6193L60.7693 21.054L61.0649 21.3743L61.7998 20.696ZM61.8637 19.864L61.6621 18.8845L60.9245 19.0364L60.8667 19.7873L61.8637 19.864ZM73.3197 18.968L74.2531 18.609L74.0066 17.968H73.3197V18.968ZM71.8477 31.256L72.8174 31.5006L71.8477 31.256ZM75.6237 40.472L76.1074 41.3472L76.5306 41.1134L76.6101 40.6364L75.6237 40.472ZM76.9037 34.584L77.8772 34.813L77.8794 34.8035L76.9037 34.584ZM79.2077 19.928L78.8364 18.9995L78.2077 19.251V19.928H79.2077ZM88.4877 19.032H89.4877V18.032H88.4877V19.032ZM86.6958 30.808L87.6752 31.0097L87.6755 31.0082L86.6958 30.808ZM89.1917 40.984L90.0516 40.4735L89.5879 39.6924L88.766 40.0792L89.1917 40.984ZM90.4078 43.032L91.0471 43.8009L91.7033 43.2553L91.2676 42.5215L90.4078 43.032ZM76.9037 46.616L76.2705 47.39L76.2789 47.3968L76.2874 47.4035L76.9037 46.616ZM75.3037 43.608L76.2984 43.5051L76.1079 41.6629L74.6721 42.8328L75.3037 43.608ZM62.1837 46.36L61.4611 47.0512L61.4688 47.0592L61.4766 47.0671L62.1837 46.36ZM61.7757 42.2C61.7757 40.5035 62.2992 37.4984 63.4093 33.1007L61.4702 32.6112C60.3616 37.0029 59.7757 40.2271 59.7757 42.2H61.7757ZM63.4099 33.0985C63.9661 30.8737 64.386 29.0714 64.6674 27.6966C64.9422 26.3542 65.1038 25.3352 65.1038 24.728H63.1038C63.1038 25.1021 62.9879 25.9284 62.7081 27.2954C62.4349 28.63 62.0227 30.401 61.4696 32.6135L63.4099 33.0985ZM65.1038 24.728C65.1038 23.975 64.8256 23.2077 64.396 22.4559C63.9617 21.6958 63.3325 20.8822 62.5346 20.0177L61.0649 21.3743C61.803 22.1738 62.3258 22.8642 62.6595 23.4481C62.9979 24.0403 63.1038 24.457 63.1038 24.728H65.1038ZM62.7968 20.7727L62.8608 19.9407L60.8667 19.7873L60.8027 20.6193L62.7968 20.7727ZM62.0654 20.8435C64.8731 20.2654 68.6164 19.968 73.3197 19.968V17.968C68.5511 17.968 64.657 18.2679 61.6621 18.8845L62.0654 20.8435ZM72.3864 19.327C72.5258 19.6895 72.6397 20.521 72.6397 21.976H74.6397C74.6397 20.5297 74.5403 19.3559 74.2531 18.609L72.3864 19.327ZM72.6397 21.976C72.6397 23.2784 72.0807 26.2442 70.8781 31.0114L72.8174 31.5006C74.0042 26.7958 74.6397 23.5749 74.6397 21.976H72.6397ZM70.8781 31.0114C70.279 33.3865 69.8268 35.3234 69.5237 36.8172C69.2263 38.2828 69.0557 39.3987 69.0557 40.088H71.0557C71.0557 39.6254 71.1838 38.6932 71.4838 37.2148C71.778 35.7646 72.2218 33.8615 72.8174 31.5006L70.8781 31.0114ZM69.0557 40.088C69.0557 40.7582 69.1747 41.4426 69.5722 41.9792C70.0113 42.572 70.6604 42.816 71.3358 42.816V40.816C71.234 40.816 71.1924 40.7989 71.1861 40.7961C71.1856 40.7958 71.1864 40.7984 71.1793 40.7888C71.1501 40.7494 71.0557 40.5698 71.0557 40.088H69.0557ZM71.3358 42.816C72.8059 42.816 74.406 42.2875 76.1074 41.3472L75.1401 39.5968C73.5989 40.4485 72.3403 40.816 71.3358 40.816V42.816ZM76.6101 40.6364C76.7745 39.65 77.1935 37.7187 77.8772 34.813L75.9303 34.355C75.2487 37.252 74.8143 39.246 74.6374 40.3076L76.6101 40.6364ZM77.8794 34.8035C79.4155 27.9761 80.2077 22.9942 80.2077 19.928H78.2077C78.2077 22.7498 77.464 27.5386 75.9281 34.3645L77.8794 34.8035ZM79.5791 20.8565C80.8748 20.3382 83.386 20.032 87.2718 20.032V18.032C83.3922 18.032 80.5273 18.3231 78.8364 18.9995L79.5791 20.8565ZM87.2718 20.032H88.4877V18.032H87.2718V20.032ZM87.4877 19.032C87.4877 20.9195 86.914 24.7461 85.716 30.6078L87.6755 31.0082C88.8668 25.1793 89.4877 21.1552 89.4877 19.032H87.4877ZM85.7163 30.6063C85.1181 33.5116 84.6679 35.8267 84.3667 37.5476C84.0719 39.2321 83.9037 40.4322 83.9037 41.048H85.9037C85.9037 40.6398 86.0342 39.6212 86.3368 37.8924C86.633 36.2 87.0787 33.907 87.6752 31.0097L85.7163 30.6063ZM83.9037 41.048C83.9037 41.5804 83.957 42.1145 84.1467 42.5507C84.2463 42.78 84.4037 43.0287 84.6553 43.2216C84.9205 43.4249 85.2308 43.52 85.5437 43.52V41.52C85.6434 41.52 85.767 41.5538 85.8722 41.6344C85.9638 41.7047 85.9878 41.7694 85.9808 41.7533C85.9737 41.7369 85.9519 41.6761 85.9334 41.5486C85.9154 41.4243 85.9037 41.2595 85.9037 41.048H83.9037ZM85.5437 43.52C85.7074 43.52 85.8552 43.4848 85.9346 43.4643C86.033 43.4389 86.1382 43.4054 86.2443 43.3685C86.4574 43.2944 86.7236 43.1891 87.0358 43.0576C87.6628 42.7936 88.5254 42.4028 89.6175 41.8888L88.766 40.0792C87.6821 40.5892 86.8487 40.9664 86.2597 41.2144C85.9639 41.3389 85.7421 41.4256 85.5872 41.4795C85.5093 41.5066 85.4605 41.5211 85.4349 41.5277C85.3903 41.5392 85.4441 41.52 85.5437 41.52V43.52ZM88.3319 41.4945L89.5479 43.5425L91.2676 42.5215L90.0516 40.4735L88.3319 41.4945ZM89.7684 42.2631C86.0321 45.3696 82.9309 46.768 80.4238 46.768V48.768C83.6339 48.768 87.1887 47.009 91.0471 43.8009L89.7684 42.2631ZM80.4238 46.768C79.2591 46.768 78.3084 46.4454 77.5201 45.8285L76.2874 47.4035C77.4618 48.3226 78.8577 48.768 80.4238 48.768V46.768ZM77.537 45.842C76.8085 45.246 76.4001 44.4873 76.2984 43.5051L74.3091 43.7109C74.4634 45.2033 75.1217 46.45 76.2705 47.39L77.537 45.842ZM74.6721 42.8328C71.2968 45.583 68.3811 46.832 65.8958 46.832V48.832C69.0424 48.832 72.3987 47.265 75.9354 44.3832L74.6721 42.8328ZM65.8958 46.832C64.6453 46.832 63.6695 46.4315 62.8909 45.6529L61.4766 47.0671C62.6607 48.2512 64.1595 48.832 65.8958 48.832V46.832ZM62.9064 45.6688C62.1968 44.9269 61.7757 43.8192 61.7757 42.2H59.7757C59.7757 44.1648 60.2934 45.8304 61.4611 47.0512L62.9064 45.6688ZM122.537 43.096L123.189 43.8546L123.801 43.3285L123.416 42.6189L122.537 43.096ZM108.201 43.672L109.189 43.5176L108.885 41.5735L107.494 42.9649L108.201 43.672ZM103.913 46.68L104.331 47.5887L103.913 46.68ZM94.5052 45.08L93.728 45.7092L94.5052 45.08ZM95.9133 23.512L96.7145 24.1103L96.7183 24.1052L95.9133 23.512ZM111.593 20.696L111.039 21.528L112.292 22.3638L112.575 20.8839L111.593 20.696ZM113.577 4.376H114.577V4.31668L114.57 4.25779L113.577 4.376ZM113.257 1.688L112.93 0.743164L112.169 1.00684L112.264 1.80621L113.257 1.688ZM122.665 0.0239983L123.57 -0.401796L123.3 -0.976002H122.665V0.0239983ZM120.361 21.528L121.342 21.7216L121.342 21.7207L120.361 21.528ZM120.681 41.24L121.192 42.0999L121.196 42.0975L120.681 41.24ZM121.321 40.856L122.2 40.3789L121.702 39.4614L120.807 39.9985L121.321 40.856ZM103.209 26.84L102.273 26.4874L102.269 26.4993L103.209 26.84ZM102.185 41.112L101.282 41.5401L101.291 41.5591L101.3 41.5777L102.185 41.112ZM108.201 40.6L108.846 41.3643L109.167 41.0935L109.198 40.6748L108.201 40.6ZM111.081 23.576L112.064 23.7587L112.199 23.0361L111.549 22.6922L111.081 23.576ZM121.886 42.3374C118.321 45.3991 115.351 46.768 112.937 46.768V48.768C116.07 48.768 119.5 47.0222 123.189 43.8546L121.886 42.3374ZM112.937 46.768C111.737 46.768 110.917 46.47 110.359 45.9876C109.8 45.5039 109.378 44.7257 109.189 43.5176L107.213 43.8264C107.451 45.3489 108.032 46.6187 109.051 47.5004C110.072 48.3833 111.407 48.768 112.937 48.768V46.768ZM107.494 42.9649C106.294 44.1646 104.962 45.0975 103.496 45.7713L104.331 47.5887C106.022 46.8118 107.548 45.7394 108.908 44.3791L107.494 42.9649ZM103.496 45.7713C101.993 46.4617 100.754 46.768 99.7533 46.768V48.768C101.142 48.768 102.676 48.349 104.331 47.5887L103.496 45.7713ZM99.7533 46.768C98.0475 46.768 96.5703 46.0416 95.2825 44.4508L93.728 45.7092C95.3415 47.7024 97.363 48.768 99.7533 48.768V46.768ZM95.2825 44.4508C94.0421 42.9185 93.3292 40.4192 93.3292 36.76H91.3292C91.3292 40.6102 92.0671 43.6575 93.728 45.7092L95.2825 44.4508ZM93.3292 36.76C93.3292 31.2576 94.4976 27.0794 96.7145 24.1103L95.112 22.9137C92.5502 26.3446 91.3292 30.9984 91.3292 36.76H93.3292ZM96.7183 24.1052C98.9903 21.0217 101.412 19.648 103.977 19.648V17.648C100.569 17.648 97.6148 19.517 95.1082 22.9188L96.7183 24.1052ZM103.977 19.648C106.855 19.648 109.189 20.2952 111.039 21.528L112.148 19.8639C109.901 18.3662 107.158 17.648 103.977 17.648V19.648ZM112.575 20.8839C113.902 13.9496 114.577 8.43754 114.577 4.376H112.577C112.577 8.25046 111.929 13.6184 110.611 20.5081L112.575 20.8839ZM114.57 4.25779L114.25 1.56979L112.264 1.80621L112.584 4.49421L114.57 4.25779ZM113.585 2.63284C116.69 1.5563 119.716 1.024 122.665 1.024V-0.976002C119.471 -0.976002 116.224 -0.398966 112.93 0.743164L113.585 2.63284ZM121.76 0.449793C122.029 1.02103 122.177 1.70355 122.177 2.52H124.177C124.177 1.45911 123.984 0.477633 123.57 -0.401796L121.76 0.449793ZM122.177 2.52C122.177 5.52015 121.261 11.7586 119.38 21.3353L121.342 21.7207C123.216 12.1827 124.177 5.74918 124.177 2.52H122.177ZM119.38 21.3344C117.505 30.8366 116.545 37.394 116.545 40.92H118.545C118.545 37.6193 119.463 31.2487 121.342 21.7216L119.38 21.3344ZM116.545 40.92C116.545 41.477 116.604 42.0349 116.812 42.4887C116.922 42.728 117.091 42.9783 117.353 43.1687C117.626 43.367 117.938 43.456 118.249 43.456V41.456C118.326 41.456 118.433 41.481 118.529 41.5513C118.615 41.6137 118.638 41.672 118.63 41.6553C118.622 41.6369 118.598 41.5732 118.578 41.441C118.558 41.3118 118.545 41.1403 118.545 40.92H116.545ZM118.249 43.456C118.511 43.456 118.759 43.3686 118.9 43.3148C119.078 43.2474 119.279 43.1551 119.496 43.0464C119.933 42.8279 120.501 42.5098 121.192 42.0999L120.171 40.3801C119.496 40.7808 118.976 41.0707 118.602 41.2576C118.414 41.3515 118.279 41.4113 118.19 41.4452C118.065 41.4927 118.115 41.456 118.249 41.456V43.456ZM121.196 42.0975L121.836 41.7135L120.807 39.9985L120.167 40.3825L121.196 42.0975ZM120.442 41.3331L121.658 43.5731L123.416 42.6189L122.2 40.3789L120.442 41.3331ZM107.113 21.424C105.996 21.424 105.045 21.9867 104.268 22.8657C103.503 23.7308 102.848 24.9617 102.273 26.4874L104.145 27.1926C104.679 25.7743 105.23 24.7972 105.766 24.1903C106.291 23.5973 106.737 23.424 107.113 23.424V21.424ZM102.269 26.4993C101.166 29.5439 100.609 32.5816 100.609 35.608H102.609C102.609 32.8317 103.119 30.0241 104.149 27.1806L102.269 26.4993ZM100.609 35.608C100.609 37.0555 100.658 38.2668 100.759 39.2321C100.857 40.1689 101.013 40.9731 101.282 41.5401L103.089 40.6839C102.974 40.4402 102.842 39.9218 102.748 39.0239C102.657 38.1545 102.609 37.0192 102.609 35.608H100.609ZM101.3 41.5777C101.574 42.0979 101.94 42.5451 102.421 42.8605C102.909 43.18 103.461 43.328 104.041 43.328V41.328C103.811 41.328 103.648 41.2733 103.517 41.1875C103.38 41.0976 103.223 40.9368 103.07 40.6463L101.3 41.5777ZM104.041 43.328C105.743 43.328 107.35 42.6266 108.846 41.3643L107.556 39.8357C106.322 40.8774 105.155 41.328 104.041 41.328V43.328ZM109.198 40.6748C109.321 39.0374 110.266 33.4336 112.064 23.7587L110.098 23.3933C108.312 33.0037 107.337 38.7493 107.204 40.5252L109.198 40.6748ZM111.549 22.6922C110.006 21.875 108.521 21.424 107.113 21.424V23.424C108.095 23.424 109.256 23.741 110.613 24.4598L111.549 22.6922ZM128.87 23.32L129.563 24.0414L129.563 24.0412L128.87 23.32ZM146.086 20.504L146.693 19.709L146.086 20.504ZM146.918 30.68L146.121 30.0761L146.115 30.0839L146.11 30.0918L146.918 30.68ZM143.142 33.944L143.584 34.8409L143.592 34.8372L143.6 34.8333L143.142 33.944ZM134.822 36.76L134.946 37.7523L134.96 37.7506L134.973 37.7486L134.822 36.76ZM133.286 36.952L133.162 35.9597L132.218 36.0777L132.289 37.0263L133.286 36.952ZM141.478 42.2L141.072 41.2862L141.478 42.2ZM144.166 40.664L143.542 39.8831V39.8831L144.166 40.664ZM145.126 39.896L145.926 39.296L145.307 38.4706L144.502 39.1151L145.126 39.896ZM146.662 41.944L147.471 42.5322L147.905 41.9349L147.462 41.344L146.662 41.944ZM144.614 43.8L144.014 43L144.614 43.8ZM141.734 45.72L142.217 46.5956L142.224 46.592L142.23 46.5882L141.734 45.72ZM126.63 44.632L125.856 45.2644L126.63 44.632ZM133.222 33.816H132.222V35.0079L133.396 34.8008L133.222 33.816ZM138.406 31.064L137.656 30.4024L138.406 31.064ZM134.502 26.136L133.551 25.8286L133.548 25.8377L134.502 26.136ZM125.07 35.928C125.07 30.8077 126.598 26.8873 129.563 24.0414L128.178 22.5986C124.742 25.8967 123.07 30.3817 123.07 35.928H125.07ZM129.563 24.0412C132.639 21.0863 136.067 19.648 139.878 19.648V17.648C135.498 17.648 131.587 19.3243 128.178 22.5988L129.563 24.0412ZM139.878 19.648C142.229 19.648 144.07 20.2233 145.48 21.299L146.693 19.709C144.86 18.3101 142.562 17.648 139.878 17.648V19.648ZM145.48 21.299C146.846 22.3416 147.518 23.708 147.518 25.496H149.518C149.518 23.1027 148.569 21.141 146.693 19.709L145.48 21.299ZM147.518 25.496C147.518 27.3621 147.036 28.8687 146.121 30.0761L147.715 31.2839C148.934 29.6753 149.518 27.7259 149.518 25.496H147.518ZM146.11 30.0918C145.174 31.3782 144.034 32.3609 142.685 33.0547L143.6 34.8333C145.237 33.9911 146.615 32.7978 147.727 31.2682L146.11 30.0918ZM142.7 33.0471C139.735 34.5089 137.061 35.407 134.671 35.7714L134.973 37.7486C137.618 37.345 140.491 36.3657 143.584 34.8409L142.7 33.0471ZM134.698 35.7677L133.162 35.9597L133.41 37.9443L134.946 37.7523L134.698 35.7677ZM132.289 37.0263C132.446 39.1314 132.963 40.8702 133.969 42.0977C135.01 43.3691 136.472 43.968 138.214 43.968V41.968C136.97 41.968 136.117 41.5643 135.516 40.8303C134.879 40.0524 134.425 38.7833 134.283 36.8777L132.289 37.0263ZM138.214 43.968C139.407 43.968 140.633 43.6698 141.884 43.1138L141.072 41.2862C140.019 41.7542 139.07 41.968 138.214 41.968V43.968ZM141.884 43.1138C143.077 42.5835 144.058 42.0309 144.791 41.4449L143.542 39.8831C142.994 40.3211 142.183 40.7925 141.072 41.2862L141.884 43.1138ZM144.791 41.4449L145.751 40.6769L144.502 39.1151L143.542 39.8831L144.791 41.4449ZM144.326 40.496L145.862 42.544L147.462 41.344L145.926 39.296L144.326 40.496ZM145.854 41.3558C145.607 41.6945 145.031 42.2375 144.014 43L145.214 44.6C146.246 43.8265 147.035 43.1321 147.471 42.5322L145.854 41.3558ZM144.014 43C143.016 43.7488 142.091 44.3645 141.238 44.8518L142.23 46.5882C143.17 46.0515 144.165 45.3872 145.214 44.6L144.014 43ZM141.251 44.8444C138.931 46.1247 136.389 46.768 133.606 46.768V48.768C136.712 48.768 139.588 48.046 142.217 46.5956L141.251 44.8444ZM133.606 46.768C130.931 46.768 128.903 45.8346 127.405 43.9996L125.856 45.2644C127.771 47.6107 130.393 48.768 133.606 48.768V46.768ZM127.405 43.9996C125.89 42.1443 125.07 39.4954 125.07 35.928H123.07C123.07 39.7846 123.957 42.9384 125.856 45.2644L127.405 43.9996ZM133.396 34.8008C135.762 34.3833 137.705 33.3699 139.156 31.7256L137.656 30.4024C136.547 31.6594 135.035 32.4807 133.048 32.8312L133.396 34.8008ZM139.156 31.7256C140.627 30.0586 141.326 27.9307 141.326 25.432H139.326C139.326 27.5413 138.745 29.1681 137.656 30.4024L139.156 31.7256ZM141.326 25.432C141.326 24.2139 141.152 23.1352 140.675 22.3302C140.149 21.4431 139.306 20.976 138.278 20.976V22.976C138.616 22.976 138.797 23.0849 138.954 23.3498C139.16 23.6968 139.326 24.3461 139.326 25.432H141.326ZM138.278 20.976C135.935 20.976 134.463 23.0062 133.551 25.8286L135.454 26.4434C136.334 23.7191 137.379 22.976 138.278 22.976V20.976ZM133.548 25.8377C132.67 28.6465 132.222 31.3079 132.222 33.816H134.222C134.222 31.5455 134.628 29.0868 135.457 26.4343L133.548 25.8377ZM150.721 47.192L149.751 47.4345L149.94 48.192H150.721V47.192ZM152.321 35.032L151.343 34.8209L152.321 35.032ZM152.257 21.528L151.457 22.128L151.459 22.1314L152.257 21.528ZM151.681 20.76L150.684 20.6833L150.655 21.0588L150.881 21.36L151.681 20.76ZM151.745 19.928L151.477 18.9645L150.801 19.1522L150.748 19.8513L151.745 19.928ZM162.817 18.968L163.725 18.5489L163.457 17.968H162.817V18.968ZM163.585 23.64H162.585V27.1941L164.438 24.1614L163.585 23.64ZM174.593 24.664L175.361 25.3042L175.593 25.0261V24.664H174.593ZM173.697 25.688L172.953 25.019L172.949 25.0236L173.697 25.688ZM171.521 27.352L170.973 26.515L170.966 26.52L170.958 26.5251L171.521 27.352ZM168.385 28.696V29.696H168.468L168.549 29.6824L168.385 28.696ZM167.297 26.968L168.157 26.4582L167.297 26.968ZM165.761 25.24V24.24H165.586L165.422 24.2991L165.761 25.24ZM162.945 27.16L162.203 26.4891L162.026 26.6851L161.969 26.9431L162.945 27.16ZM160.065 46.296L160.436 47.2245L161.143 46.9419L161.059 46.1856L160.065 46.296ZM151.169 46.192H150.721V48.192H151.169V46.192ZM151.691 46.9495C151.641 46.7509 151.593 46.1153 151.593 44.888H149.593C149.593 46.05 149.63 46.9504 149.751 47.4345L151.691 46.9495ZM151.593 44.888C151.593 44.3684 151.72 43.319 152.01 41.6687C152.295 40.0443 152.723 37.9039 153.298 35.2431L151.343 34.8209C150.766 37.4934 150.331 39.6623 150.04 41.3233C149.753 42.9584 149.593 44.1703 149.593 44.888H151.593ZM153.298 35.2431C153.875 32.5733 154.309 30.4675 154.599 28.9295C154.881 27.4396 155.049 26.379 155.049 25.88H153.049C153.049 26.149 152.929 26.9978 152.634 28.5585C152.348 30.0712 151.919 32.1574 151.343 34.8209L153.298 35.2431ZM155.049 25.88C155.049 24.2551 154.318 22.5948 153.054 20.9246L151.459 22.1314C152.585 23.6186 153.049 24.8596 153.049 25.88H155.049ZM153.057 20.928L152.481 20.16L150.881 21.36L151.457 22.128L153.057 20.928ZM152.678 20.8367L152.742 20.0047L150.748 19.8513L150.684 20.6833L152.678 20.8367ZM152.012 20.8915C154.177 20.2902 157.752 19.968 162.817 19.968V17.968C157.727 17.968 153.92 18.2858 151.477 18.9645L152.012 20.8915ZM161.909 19.3871C162.333 20.307 162.585 21.6978 162.585 23.64H164.585C164.585 21.5715 164.324 19.8477 163.725 18.5489L161.909 19.3871ZM164.438 24.1614C164.819 23.5379 165.694 22.6003 167.18 21.3273L165.878 19.8087C164.376 21.0957 163.289 22.2061 162.731 23.1185L164.438 24.1614ZM167.18 21.3273C168.538 20.1631 169.851 19.648 171.137 19.648V17.648C169.265 17.648 167.506 18.4129 165.878 19.8087L167.18 21.3273ZM171.137 19.648C171.929 19.648 172.463 19.9565 172.862 20.6501C173.308 21.4272 173.593 22.7216 173.593 24.664H175.593C175.593 22.5957 175.301 20.8822 174.596 19.6539C173.842 18.3422 172.648 17.648 171.137 17.648V19.648ZM173.825 24.0238C173.623 24.2656 173.334 24.5961 172.953 25.019L174.44 26.357C174.827 25.9265 175.136 25.5744 175.361 25.3042L173.825 24.0238ZM172.949 25.0236C172.708 25.2955 172.089 25.7854 170.973 26.515L172.068 28.189C173.171 27.468 174.003 26.8485 174.444 26.3524L172.949 25.0236ZM170.958 26.5251C169.983 27.1883 169.072 27.5677 168.22 27.7096L168.549 29.6824C169.746 29.4829 170.925 28.9664 172.083 28.1789L170.958 26.5251ZM168.385 27.696C168.641 27.696 168.821 27.7944 168.878 27.8272C168.953 27.8705 169.006 27.9142 169.03 27.9352C169.079 27.9783 169.11 28.0146 169.115 28.0205C169.13 28.038 169.13 28.0408 169.111 28.0125C169.075 27.962 169.015 27.8714 168.927 27.7312C168.753 27.4549 168.497 27.0323 168.157 26.4582L166.436 27.4778C166.779 28.0557 167.046 28.4971 167.235 28.7968C167.328 28.9446 167.409 29.07 167.475 29.1635C167.506 29.2072 167.547 29.264 167.592 29.3175C167.613 29.3414 167.656 29.3912 167.716 29.4433C167.745 29.4688 167.802 29.5158 167.882 29.5614C167.943 29.5964 168.126 29.696 168.385 29.696V27.696ZM168.157 26.4582C167.803 25.861 167.467 25.3659 167.148 25.0076C166.989 24.8288 166.809 24.6549 166.608 24.5191C166.415 24.3887 166.123 24.24 165.761 24.24V26.24C165.569 26.24 165.469 26.1633 165.489 26.1768C165.502 26.1851 165.556 26.2272 165.653 26.3364C165.847 26.5541 166.108 26.923 166.436 27.4778L168.157 26.4582ZM165.422 24.2991C164.191 24.7423 163.117 25.4797 162.203 26.4891L163.686 27.8309C164.394 27.0483 165.197 26.5057 166.099 26.1809L165.422 24.2991ZM161.969 26.9431C160.013 35.745 159.001 41.5775 159.001 44.312H161.001C161.001 41.8411 161.952 36.239 163.921 27.3769L161.969 26.9431ZM159.001 44.312C159.001 45.2503 159.021 45.9615 159.071 46.4064L161.059 46.1856C161.023 45.8625 161.001 45.251 161.001 44.312H159.001ZM159.693 45.3675C159.078 45.6135 158.075 45.8265 156.621 45.973C155.183 46.1178 153.368 46.192 151.169 46.192V48.192C153.406 48.192 155.293 48.1168 156.821 47.963C158.332 47.8108 159.558 47.5758 160.436 47.2245L159.693 45.3675Z" fill="#31BDDC" mask="url(#path-1-outside-1_215_62)"/>
</svg>
